<mxfile host="Electron" modified="2023-09-13T03:14:09.628Z" agent="Mozilla/5.0 (Windows NT 10.0; Win64; x64) AppleWebKit/537.36 (KHTML, like Gecko) draw.io/21.5.1 Chrome/112.0.5615.204 Electron/24.6.0 Safari/537.36" etag="JKEI71OGI0MjJGE-IRhr" version="21.5.1" type="device">
  <diagram name="Page-1" id="hmO3HKTwKXDOThP6YmGL">
    <mxGraphModel dx="778" dy="831" grid="1" gridSize="10" guides="1" tooltips="1" connect="1" arrows="1" fold="1" page="1" pageScale="1" pageWidth="827" pageHeight="1169" math="0" shadow="0">
      <root>
        <mxCell id="0" />
        <mxCell id="1" parent="0" />
        <mxCell id="xlQfAOnJVuMs_smHaQyT-2" value="CloudWatch Logs" style="sketch=0;outlineConnect=0;fontColor=#232F3E;gradientColor=none;fillColor=#B0084D;strokeColor=none;dashed=0;verticalLabelPosition=bottom;verticalAlign=top;align=center;html=1;fontSize=12;fontStyle=0;aspect=fixed;pointerEvents=1;shape=mxgraph.aws4.logs;" vertex="1" parent="1">
          <mxGeometry x="405" y="100" width="78" height="58" as="geometry" />
        </mxCell>
        <mxCell id="xlQfAOnJVuMs_smHaQyT-4" value="On-Premise Server" style="fillColor=#f8cecc;strokeColor=#b85450;dashed=1;verticalAlign=bottom;fontStyle=0;whiteSpace=wrap;html=1;" vertex="1" parent="1">
          <mxGeometry x="450" y="290" width="130" height="130" as="geometry" />
        </mxCell>
        <mxCell id="xlQfAOnJVuMs_smHaQyT-5" value="EC2 Instance" style="fillColor=#dae8fc;strokeColor=#6c8ebf;dashed=1;verticalAlign=bottom;fontStyle=0;whiteSpace=wrap;html=1;" vertex="1" parent="1">
          <mxGeometry x="300" y="290" width="130" height="130" as="geometry" />
        </mxCell>
        <mxCell id="xlQfAOnJVuMs_smHaQyT-8" style="edgeStyle=orthogonalEdgeStyle;rounded=0;orthogonalLoop=1;jettySize=auto;html=1;" edge="1" parent="1" source="xlQfAOnJVuMs_smHaQyT-6" target="xlQfAOnJVuMs_smHaQyT-2">
          <mxGeometry relative="1" as="geometry">
            <Array as="points">
              <mxPoint x="365" y="129" />
            </Array>
          </mxGeometry>
        </mxCell>
        <mxCell id="xlQfAOnJVuMs_smHaQyT-6" value="CloudWatch &lt;b&gt;&lt;font style=&quot;font-size: 17px;&quot;&gt;Logs Agent&lt;/font&gt;&lt;/b&gt;" style="rounded=0;whiteSpace=wrap;html=1;" vertex="1" parent="1">
          <mxGeometry x="325" y="310" width="80" height="60" as="geometry" />
        </mxCell>
        <mxCell id="xlQfAOnJVuMs_smHaQyT-9" style="edgeStyle=orthogonalEdgeStyle;rounded=0;orthogonalLoop=1;jettySize=auto;html=1;" edge="1" parent="1" source="xlQfAOnJVuMs_smHaQyT-7" target="xlQfAOnJVuMs_smHaQyT-2">
          <mxGeometry relative="1" as="geometry">
            <Array as="points">
              <mxPoint x="515" y="129" />
            </Array>
          </mxGeometry>
        </mxCell>
        <mxCell id="xlQfAOnJVuMs_smHaQyT-7" value="CloudWatch &lt;b&gt;&lt;font style=&quot;font-size: 17px;&quot;&gt;Logs Agent&lt;/font&gt;&lt;/b&gt;" style="rounded=0;whiteSpace=wrap;html=1;" vertex="1" parent="1">
          <mxGeometry x="475" y="310" width="80" height="60" as="geometry" />
        </mxCell>
        <mxCell id="xlQfAOnJVuMs_smHaQyT-10" value="PutMetricData" style="text;html=1;align=center;verticalAlign=middle;resizable=0;points=[];autosize=1;strokeColor=none;fillColor=none;" vertex="1" parent="1">
          <mxGeometry x="520" y="210" width="100" height="30" as="geometry" />
        </mxCell>
      </root>
    </mxGraphModel>
  </diagram>
</mxfile>
